<svg width="140" height="17" viewBox="0 0 140 17" fill="none" xmlns="http://www.w3.org/2000/svg">
<path fill-rule="evenodd" clip-rule="evenodd" d="M15.5978 5.54358V7.77184H21.6848L15.5978 16.6849H25.8152V14.4566H19.6739L25.8152 5.54358H15.5978Z" fill="#9B9B9B"/>
<path fill-rule="evenodd" clip-rule="evenodd" d="M70.4348 4.40207C70.6245 4.40123 70.8114 4.35667 70.9811 4.27183C71.1508 4.187 71.2986 4.06419 71.4131 3.91294C71.554 3.76961 71.6649 3.59971 71.7396 3.41311C71.8142 3.22651 71.851 3.02693 71.8478 2.82598C71.8425 2.42233 71.6876 2.03502 71.4131 1.73902C71.2986 1.58777 71.1508 1.46496 70.9811 1.38013C70.8114 1.29529 70.6245 1.25073 70.4348 1.24989C70.2372 1.25006 70.0422 1.29402 69.8636 1.37859C69.6851 1.46317 69.5275 1.58626 69.4022 1.73902C69.2613 1.88235 69.1503 2.05225 69.0757 2.23885C69.001 2.42545 68.9642 2.62503 68.9674 2.82598C68.9642 3.02693 69.001 3.22651 69.0757 3.41311C69.1503 3.59971 69.2613 3.76961 69.4022 3.91294C69.5275 4.0657 69.6851 4.18879 69.8636 4.27337C70.0422 4.35794 70.2372 4.4019 70.4348 4.40207Z" fill="#9B9B9B"/>
<path fill-rule="evenodd" clip-rule="evenodd" d="M65.0544 4.40207C65.244 4.40123 65.431 4.35667 65.6007 4.27183C65.7703 4.187 65.9181 4.06419 66.0326 3.91294C66.1735 3.76961 66.2845 3.59971 66.3591 3.41311C66.4338 3.22651 66.4706 3.02693 66.4674 2.82598C66.462 2.42233 66.3071 2.03502 66.0326 1.73902C65.9181 1.58777 65.7703 1.46496 65.6007 1.38013C65.431 1.29529 65.244 1.25073 65.0544 1.24989C64.8568 1.25006 64.6617 1.29402 64.4832 1.37859C64.3046 1.46317 64.147 1.58626 64.0217 1.73902C63.8809 1.88235 63.7699 2.05225 63.6952 2.23885C63.6206 2.42545 63.5838 2.62503 63.587 2.82598C63.5714 3.02835 63.6025 3.23159 63.6779 3.42003C63.7533 3.60848 63.8709 3.77711 64.0217 3.91294C64.1432 4.07001 64.3 4.19619 64.4795 4.28118C64.6589 4.36618 64.8559 4.4076 65.0544 4.40207Z" fill="#9B9B9B"/>
<path fill-rule="evenodd" clip-rule="evenodd" d="M0 16.6848H2.22826L4.02174 12.2283H10.2174L12.0109 16.6848H14.2935L7.11957 0L0 16.6848ZM5 10L7.17391 4.61957L9.34783 10H5Z" fill="#9B9B9B"/>
<path fill-rule="evenodd" clip-rule="evenodd" d="M49.6196 2.22826H54.7283V16.6848H56.7391V2.22826H61.8478V0H49.6196V2.22826Z" fill="#9B9B9B"/>
<path fill-rule="evenodd" clip-rule="evenodd" d="M70.7609 14.4566H67.7174C67.3055 14.4625 66.8974 14.378 66.5218 14.209C66.1462 14.0399 65.8122 13.7905 65.5435 13.4784C64.9423 12.8498 64.6107 12.0111 64.6196 11.1414V5.54358H62.6087V11.1414C62.5794 12.5854 63.1045 13.9858 64.0761 15.0544C64.5287 15.5737 65.0888 15.9885 65.7175 16.27C66.3462 16.5515 67.0286 16.6931 67.7174 16.6849H72.8261V5.54358H70.7609V14.4566Z" fill="#9B9B9B"/>
<path fill-rule="evenodd" clip-rule="evenodd" d="M40.5434 7.17405C39.5719 8.24274 39.0468 9.64309 39.0761 11.0871V16.6306H41.0869V11.1414C41.0775 10.2555 41.4082 9.39965 42.0108 8.75014C42.2796 8.43798 42.6135 8.18858 42.9891 8.01955C43.3648 7.85052 43.7729 7.76598 44.1848 7.77188H46.1956V5.54362H44.1848C43.4968 5.54079 42.8161 5.68476 42.1882 5.96592C41.5602 6.24708 40.9995 6.65896 40.5434 7.17405Z" fill="#9B9B9B"/>
<path fill-rule="evenodd" clip-rule="evenodd" d="M104.674 7.5001C105.077 7.11045 105.384 6.63317 105.573 6.10534C105.761 5.57751 105.826 5.01334 105.761 4.45662C105.755 3.68177 105.569 2.9189 105.217 2.22836C105.037 1.89582 104.818 1.5857 104.565 1.30445C104.208 0.89153 103.766 0.561057 103.268 0.335858C102.771 0.110659 102.231 -0.00389798 101.685 0.000101215H95.5978V16.6849H102.228C102.838 16.6906 103.441 16.5621 103.995 16.3085C104.549 16.0549 105.041 15.6824 105.435 15.2175C106.336 14.2654 106.825 12.9956 106.793 11.6849C106.839 10.8626 106.667 10.0428 106.295 9.30809C105.923 8.5734 105.364 7.94978 104.674 7.5001ZM97.6087 2.22836H101.685C101.961 2.2314 102.233 2.29081 102.486 2.40296C102.738 2.51511 102.965 2.67762 103.152 2.88054C103.538 3.31506 103.751 3.87577 103.751 4.45662C103.751 5.03747 103.538 5.59819 103.152 6.03271C102.972 6.2442 102.747 6.41257 102.493 6.52544C102.239 6.6383 101.963 6.69279 101.685 6.68488H97.6087V2.22836ZM103.967 13.6414C103.747 13.9005 103.471 14.1079 103.161 14.2488C102.852 14.3897 102.514 14.4606 102.174 14.4566H97.6087V8.91315H102.174C102.514 8.90915 102.852 8.98011 103.161 9.12099C103.471 9.26188 103.747 9.46924 103.967 9.72836C104.461 10.2599 104.733 10.9596 104.728 11.6849C104.743 12.0458 104.683 12.406 104.552 12.7427C104.421 13.0794 104.222 13.3854 103.967 13.6414Z" fill="#9B9B9B"/>
<path fill-rule="evenodd" clip-rule="evenodd" d="M125.054 5.54368C124.366 5.54085 123.686 5.68482 123.058 5.96598C122.43 6.24714 121.869 6.65901 121.413 7.17411C120.442 8.2428 119.916 9.64314 119.946 11.0872V16.6306H121.957V11.1415C121.941 10.7012 122.015 10.2622 122.174 9.85125C122.332 9.44025 122.573 9.06569 122.88 8.7502C123.153 8.44229 123.487 8.19575 123.862 8.02689C124.237 7.85803 124.643 7.77071 125.054 7.77071C125.465 7.77071 125.872 7.85803 126.247 8.02689C126.621 8.19575 126.956 8.44229 127.228 8.7502C127.839 9.39444 128.171 10.2538 128.152 11.1415V16.685H130.163V11.1415C130.202 9.69586 129.676 8.29204 128.696 7.22846C128.25 6.69696 127.693 6.27037 127.063 5.97914C126.434 5.68791 125.748 5.53922 125.054 5.54368Z" fill="#9B9B9B"/>
<path fill-rule="evenodd" clip-rule="evenodd" d="M88.6413 5.54348L85.1631 10V0H83.0978V16.6848H85.1631V12.9891L88.4239 16.6848H91.25L86.5761 11.5217L91.25 5.54348H88.6413Z" fill="#9B9B9B"/>
<path fill-rule="evenodd" clip-rule="evenodd" d="M113.207 5.5435C112.526 5.5355 111.851 5.67742 111.231 5.95919C110.612 6.24097 110.061 6.65568 109.62 7.17393C108.648 8.24262 108.123 9.64297 108.152 11.087C108.123 12.531 108.648 13.9313 109.62 15C110.061 15.5183 110.612 15.933 111.231 16.2148C111.851 16.4965 112.526 16.6384 113.207 16.6305H118.315V11.1413C118.337 10.4203 118.214 9.70221 117.953 9.0299C117.691 8.3576 117.297 7.74486 116.793 7.22828C116.362 6.69385 115.816 6.26444 115.194 5.97256C114.573 5.68067 113.893 5.53395 113.207 5.5435ZM116.25 14.4565H113.207C112.795 14.4624 112.387 14.3779 112.011 14.2089C111.635 14.0398 111.301 13.7904 111.033 13.4783C110.431 12.8498 110.1 12.011 110.109 11.1413C110.099 10.2554 110.43 9.39953 111.033 8.75002C111.305 8.44211 111.64 8.19557 112.014 8.02671C112.389 7.85785 112.795 7.77053 113.207 7.77053C113.618 7.77053 114.024 7.85785 114.399 8.02671C114.773 8.19557 115.108 8.44211 115.38 8.75002C115.991 9.39426 116.323 10.2536 116.304 11.1413V14.4565H116.25Z" fill="#9B9B9B"/>
<path fill-rule="evenodd" clip-rule="evenodd" d="M75.9239 7.17389C74.9524 8.24258 74.4272 9.64293 74.4565 11.0869V16.6304H76.4674V11.1413C76.4519 10.7009 76.5257 10.262 76.6845 9.85103C76.8433 9.44003 77.0838 9.06548 77.3913 8.74998C77.6601 8.43781 77.994 8.18842 78.3696 8.01939C78.7453 7.85036 79.1534 7.76582 79.5652 7.77172H81.5761V5.54346H79.5652C78.8756 5.52969 78.1914 5.66874 77.5619 5.95063C76.9323 6.23252 76.373 6.65027 75.9239 7.17389Z" fill="#9B9B9B"/>
<path fill-rule="evenodd" clip-rule="evenodd" d="M32.4457 5.54362H28.3152V7.77188H32.4457C33.1013 7.77292 33.7359 8.00368 34.2391 8.42405C34.7493 8.83042 35.1275 9.37888 35.3261 10.0001H27.337V11.0871C27.3097 11.8087 27.4307 12.5283 27.6924 13.2013C27.9541 13.8743 28.3511 14.4865 28.8587 15.0001C29.3004 15.5184 29.8507 15.9331 30.4706 16.2149C31.0905 16.4967 31.7648 16.6386 32.4457 16.6306C33.1336 16.6334 33.8143 16.4894 34.4422 16.2083C35.0702 15.9271 35.6309 15.5152 36.087 15.0001C37.0585 13.9315 37.5837 12.5311 37.5544 11.0871C37.5837 9.64309 37.0585 8.24274 36.087 7.17405C35.6309 6.65896 35.0702 6.24708 34.4422 5.96592C33.8143 5.68476 33.1336 5.54079 32.4457 5.54362ZM34.2391 13.8588C33.7307 14.2638 33.0953 14.4756 32.4457 14.4567C31.8 14.4499 31.1728 14.2408 30.6522 13.8588C30.1349 13.4364 29.7562 12.8684 29.5652 12.2284H35.3261C35.1144 12.8585 34.7394 13.4211 34.2391 13.8588Z" fill="#9B9B9B"/>
<path fill-rule="evenodd" clip-rule="evenodd" d="M137.337 5.54348L133.859 10V0H131.848V16.6848H133.859V12.9891L137.12 16.6848H140L135.272 11.5217L140 5.54348H137.337Z" fill="#9B9B9B"/>
</svg>
