<svg width="106" height="107" viewBox="0 0 106 107" fill="none" xmlns="http://www.w3.org/2000/svg">
<path d="M0.5 0.5H105.5V98.2936L0.5 106.12V0.5Z" stroke="#FEC524"/>
<path d="M37.1914 57.9381H43.1827L34.0246 28.3667H27.049L17.8481 57.9381H23.711L25.5512 51.0909H35.3513L37.1914 57.9381ZM26.6639 46.8114L30.4298 32.689L34.2386 46.8114H26.6639ZM63.8182 28.3667H41.8643V32.8602H49.8242V57.9381H55.5159V32.8602H63.219L63.8182 28.3667ZM82.4877 42.2751C85.3122 41.676 87.9655 39.579 87.9655 35.8986C87.9655 30.5065 83.3436 28.3667 75.7261 28.3667H67.9802V57.9381H76.8816C84.0712 57.9381 89.2494 55.9267 89.2494 49.4219C89.2494 44.5004 85.8685 42.917 82.4877 42.2751ZM76.2825 32.5178C80.134 32.5178 82.1882 33.3737 82.1882 36.3694C82.1882 39.151 80.1768 40.5205 77.0956 40.5205H73.6292V32.5178H76.2825ZM76.9244 53.7014H73.6292V44.4576H77.5235C80.8187 44.4576 83.3436 45.6559 83.3436 49.2079C83.3436 52.931 80.6476 53.7014 76.9244 53.7014Z" fill="#61259E"/>
<path d="M34.2718 68.9201C35.1408 68.7357 35.9572 68.0905 35.9572 66.9581C35.9572 65.299 34.5351 64.6406 32.1913 64.6406H29.8079V73.7395H32.5468C34.759 73.7395 36.3523 73.1206 36.3523 71.1191C36.3523 69.6048 35.312 69.1176 34.2718 68.9201ZM32.3625 65.9178C33.5476 65.9178 34.1796 66.1812 34.1796 67.1029C34.1796 67.9588 33.5607 68.3802 32.6126 68.3802H31.5461V65.9178H32.3625ZM32.56 72.4358H31.5461V69.5916H32.7443C33.7582 69.5916 34.5351 69.9603 34.5351 71.0532C34.5351 72.1988 33.7056 72.4358 32.56 72.4358ZM44.9902 64.6406H43.2389V70.6714C43.2389 71.9486 42.7254 72.5807 41.593 72.5807C40.4737 72.5807 39.9602 71.9486 39.9602 70.6714V64.6406H38.222V70.7636C38.222 72.6334 39.3544 73.937 41.593 73.937C43.8183 73.937 44.9902 72.5939 44.9902 70.7636V64.6406ZM50.0857 64.4431C48.2949 64.4431 46.9912 65.4438 46.9912 66.9581C46.9912 68.3407 47.8208 69.1044 49.7301 69.697C51.1522 70.1315 51.5341 70.4739 51.5341 71.2376C51.5341 72.1198 50.8362 72.5939 49.8618 72.5939C48.9137 72.5939 48.1895 72.2515 47.5311 71.6853L46.6226 72.686C47.3731 73.4234 48.4529 73.937 49.9013 73.937C52.074 73.937 53.3512 72.7782 53.3512 71.1454C53.3512 69.4336 52.2452 68.7752 50.6519 68.2749C49.1376 67.8008 48.7821 67.5111 48.7821 66.8527C48.7821 66.1417 49.3746 65.773 50.191 65.773C50.9416 65.773 51.5736 66.01 52.232 66.5499L53.0879 65.5623C52.2978 64.8381 51.4156 64.4431 50.0857 64.4431ZM57.042 64.6406H55.3038V73.7395H57.042V64.6406ZM66.3599 64.6406H64.7801V68.9069C64.7801 70.1973 64.9381 71.5141 65.0171 72.0145L61.8437 64.6406H59.6447V73.7395H61.2248V70.0262C61.2248 68.3407 61.08 67.1819 60.9878 66.3787L64.1085 73.7395H66.3599V64.6406ZM74.2421 64.6406H68.9619V73.7395H74.2948V72.4358H70.7V69.7628H73.6233V68.4724H70.7V65.931H74.0578L74.2421 64.6406ZM79.0352 64.4431C77.2444 64.4431 75.9408 65.4438 75.9408 66.9581C75.9408 68.3407 76.7703 69.1044 78.6796 69.697C80.1018 70.1315 80.4836 70.4739 80.4836 71.2376C80.4836 72.1198 79.7857 72.5939 78.8113 72.5939C77.8633 72.5939 77.139 72.2515 76.4806 71.6853L75.5721 72.686C76.3226 73.4234 77.4024 73.937 78.8508 73.937C81.0235 73.937 82.3008 72.7782 82.3008 71.1454C82.3008 69.4336 81.1947 68.7752 79.6014 68.2749C78.0871 67.8008 77.7316 67.5111 77.7316 66.8527C77.7316 66.1417 78.3241 65.773 79.1405 65.773C79.8911 65.773 80.5231 66.01 81.1815 66.5499L82.0374 65.5623C81.2473 64.8381 80.3651 64.4431 79.0352 64.4431ZM86.7449 64.4431C84.9541 64.4431 83.6505 65.4438 83.6505 66.9581C83.6505 68.3407 84.48 69.1044 86.3893 69.697C87.8115 70.1315 88.1933 70.4739 88.1933 71.2376C88.1933 72.1198 87.4954 72.5939 86.521 72.5939C85.5729 72.5939 84.8487 72.2515 84.1903 71.6853L83.2818 72.686C84.0323 73.4234 85.1121 73.937 86.5605 73.937C88.7332 73.937 90.0105 72.7782 90.0105 71.1454C90.0105 69.4336 88.9044 68.7752 87.3111 68.2749C85.7968 67.8008 85.4413 67.5111 85.4413 66.8527C85.4413 66.1417 86.0338 65.773 86.8502 65.773C87.6008 65.773 88.2328 66.01 88.8912 66.5499L89.7471 65.5623C88.957 64.8381 88.0748 64.4431 86.7449 64.4431Z" fill="#61259E"/>
<path d="M25.677 64.5225H16.4597V73.7399H25.677V64.5225Z" fill="#FFD217"/>
</svg>
