<svg width="11" height="7" viewBox="0 0 11 7" fill="none" xmlns="http://www.w3.org/2000/svg">
<path d="M10.8198 0.657015L10.2723 0.109547C10.1993 0.036439 10.1153 0 10.0203 0C9.92549 0 9.84149 0.036439 9.76854 0.109547L5.46455 4.4133L1.16076 0.109662C1.08776 0.0365541 1.00376 0.000115007 0.908866 0.000115007C0.813933 0.000115007 0.729931 0.0365541 0.656977 0.109662L0.109547 0.657168C0.036439 0.730123 0 0.814125 0 0.909058C0 1.00391 0.0365541 1.08792 0.109547 1.16087L5.21266 6.2641C5.28562 6.33709 5.36966 6.37357 5.46455 6.37357C5.55945 6.37357 5.64333 6.33709 5.71625 6.2641L10.8198 1.16087C10.8927 1.08788 10.929 1.00388 10.929 0.909058C10.929 0.814125 10.8927 0.730123 10.8198 0.657015Z" fill="#525252"/>
</svg>
